<?xml version="1.0" encoding="UTF-8"?><svg id="Layer_1" xmlns="http://www.w3.org/2000/svg" viewBox="0 0 237.82 72"><defs><style>.cls-1{fill:#232323;}</style></defs><path class="cls-1" d="m76.09,35.89c-1.05-.36-1.91-.94-2.58-1.72s-1.01-1.77-1.01-2.97l3.93-.27c0,.6.15,1.08.44,1.45.29.36.66.62,1.12.76s.94.22,1.45.22c.69,0,1.25-.13,1.68-.4.43-.26.64-.6.64-1,0-.47-.26-.82-.78-1.04-.52-.22-1.17-.37-1.95-.46l-1.47-.16c-1.22-.15-2.24-.57-3.07-1.28-.83-.71-1.24-1.7-1.24-2.97,0-.87.28-1.62.83-2.24s1.28-1.09,2.18-1.41,1.87-.48,2.91-.48,2.04.16,2.96.49c.92.33,1.66.82,2.24,1.49s.86,1.47.86,2.42l-3.93.27c0-.51-.21-.9-.61-1.17-.41-.27-.91-.41-1.51-.41-.55,0-1,.11-1.35.33-.36.22-.53.5-.53.85,0,.33.15.6.45.8.3.21.73.35,1.3.42l1.42.16c1.49.16,2.76.55,3.79,1.16,1.04.61,1.55,1.64,1.55,3.1,0,1.04-.29,1.9-.87,2.59s-1.36,1.2-2.32,1.53c-.96.33-2.02.49-3.17.49s-2.3-.18-3.34-.55Z"/><path class="cls-1" d="m92.34,36l-6-13.64h4.07l4.39,10.01-.96.03,4.18-10.04h4.07l-7.94,19.1h-4.07l2.26-5.46Z"/><path class="cls-1" d="m103.45,22.36h4.04v13.64h-4.04v-13.64Zm8.19,3.15c-.38-.34-.85-.5-1.39-.5-.86,0-1.53.36-2.02,1.09s-.74,1.82-.74,3.27l-.71-.54c0-1.47.18-2.72.55-3.75.36-1.03.93-1.81,1.69-2.35.76-.54,1.73-.8,2.89-.8,1.29,0,2.34.43,3.14,1.28s1.2,2.13,1.2,3.82v8.98h-4.04v-8.54c0-.96-.19-1.61-.57-1.95Z"/><path class="cls-1" d="m117.34,22.36h9.77v3.08h-9.77v-3.08Zm3.49,12.54c-.78-.74-1.17-1.95-1.17-3.64v-13.02l3.9-.27v12.99c0,.58.04,1.01.14,1.28.09.27.26.46.52.55.25.09.65.14,1.2.14h1.69v3.08h-2.84c-1.51,0-2.66-.37-3.44-1.11Z"/><path class="cls-1" d="m129.29,16.62h4.04v19.38h-4.04v-19.38Zm8.19,8.88c-.38-.34-.85-.5-1.39-.5-.86,0-1.53.36-2.02,1.09s-.74,1.82-.74,3.27l-.71-.54c0-1.47.18-2.72.55-3.75.36-1.03.93-1.81,1.69-2.35.76-.54,1.73-.8,2.89-.8,1.29,0,2.34.43,3.14,1.28s1.2,2.13,1.2,3.82v8.98h-4.04v-8.54c0-.96-.19-1.61-.57-1.95Z"/><path class="cls-1" d="m147.56,35.69c-1.05-.5-1.9-1.29-2.57-2.36-.67-1.07-1-2.43-1-4.07s.33-3.01,1-4.11c.66-1.1,1.52-1.92,2.58-2.44,1.05-.53,2.16-.79,3.33-.79s2.21.26,3.19.78,1.78,1.33,2.39,2.43.92,2.48.92,4.13v.74h-9.36c0,.73.1,1.34.31,1.84.21.5.53.88.96,1.13s.96.38,1.6.38c.84,0,1.45-.18,1.84-.53.39-.35.64-.73.75-1.13l3.9.27c-.04.87-.36,1.65-.98,2.33-.62.68-1.42,1.21-2.39,1.58-.97.37-2.01.56-3.12.56-1.18,0-2.3-.25-3.34-.75Zm5.87-9.39c-.21-.39-.53-.71-.96-.94-.43-.24-.95-.36-1.57-.36s-1.14.12-1.57.36c-.43.24-.75.55-.97.94-.22.39-.33.82-.33,1.3h5.7c0-.47-.1-.91-.31-1.3Z"/><path class="cls-1" d="m157.53,22.36h9.77v3.08h-9.77v-3.08Zm3.49,12.54c-.78-.74-1.17-1.95-1.17-3.64v-13.02l3.9-.27v12.99c0,.58.04,1.01.14,1.28.09.27.26.46.52.55.25.09.65.14,1.2.14h1.69v3.08h-2.84c-1.51,0-2.66-.37-3.44-1.11Z"/><path class="cls-1" d="m169.49,16.62h4.37v3.55h-4.37v-3.55Zm.16,5.73h4.04v13.64h-4.04v-13.64Z"/><path class="cls-1" d="m179.36,35.66c-1.07-.52-1.94-1.32-2.61-2.4-.67-1.08-1-2.42-1-4s.33-2.95,1-4.05c.66-1.1,1.54-1.92,2.62-2.47,1.08-.55,2.25-.82,3.51-.82,1.89,0,3.43.41,4.61,1.24s1.89,2.28,2.13,4.35l-3.98.27c-.2-1-.51-1.71-.93-2.14-.42-.43-1.03-.64-1.83-.64-.96,0-1.72.38-2.26,1.15s-.82,1.79-.82,3.08c0,1.36.26,2.39.78,3.08.52.69,1.29,1.04,2.31,1.04.73,0,1.32-.2,1.77-.59.45-.39.78-1.07.98-2.03l3.98.27c-.22,2.04-.92,3.45-2.12,4.24-1.19.79-2.73,1.19-4.63,1.19-1.27,0-2.45-.26-3.52-.78Z"/><path class="cls-1" d="m198.66,22.12h1.21v5.71h-1.21v-5.71Zm.47,4.79h1.44c.41,0,.74-.06.98-.19.24-.12.42-.33.53-.61.11-.28.16-.66.16-1.14,0-.53-.05-.94-.16-1.21-.11-.28-.28-.46-.51-.57-.23-.1-.57-.16-1-.16h-1.44v-.92h1.53c.43,0,.85.05,1.25.16.4.11.76.37,1.07.8.32.42.48,1.05.48,1.9s-.16,1.48-.48,1.9-.68.69-1.07.8c-.4.11-.81.16-1.25.16h-1.53v-.92Z"/><path class="cls-1" d="m205.52,22.12h2.08c.27,0,.56.04.89.11.32.08.62.24.89.49s.4.61.4,1.08c0,.56-.2.93-.61,1.14s-.98.31-1.73.31v-.12c.74,0,1.25.03,1.54.08.29.05.48.17.59.35.1.18.17.51.2.98l.09,1.31h-1.22l-.09-1.41c-.02-.26-.04-.45-.07-.57-.03-.12-.1-.22-.21-.28-.11-.06-.27-.09-.49-.09h-1.04v2.36h-1.21v-5.71Zm2.56,2.38c.16-.04.28-.11.36-.21.08-.11.12-.27.12-.49s-.04-.38-.12-.49c-.08-.11-.2-.18-.36-.22-.16-.04-.37-.05-.64-.05h-.71v1.51h.71c.27,0,.49-.02.64-.05Z"/><path class="cls-1" d="m212.06,22.12h1.21v5.71h-1.21v-5.71Zm.55,0h3.27v.92h-3.27v-.92Zm0,2.29h2.86v.92h-2.86v-.92Zm0,2.51h3.27v.92h-3.27v-.92Z"/><path class="cls-1" d="m219.81,22.12h1.22l2.18,5.71h-1.22l-1.74-4.55h.33l-1.74,4.55h-1.22l2.18-5.71Zm-.87,3.36h2.96v.92h-2.96v-.92Z"/><path class="cls-1" d="m225.03,22.12h1.53l1.64,4.63h-.24l1.64-4.63h1.54v5.71h-1.21v-3.89l.12.02-1.37,3.87h-1.18l-1.38-3.89.12-.02v3.92h-1.21v-5.71Z"/><path class="cls-1" d="m234.31,27.68c-.36-.19-.63-.47-.83-.83-.19-.36-.29-.8-.29-1.3l1.21-.08c-.03.52.07.91.29,1.18s.52.4.91.4c.34,0,.6-.08.76-.25s.24-.37.24-.6c0-.21-.05-.37-.14-.5-.09-.12-.24-.23-.45-.31-.21-.08-.52-.16-.93-.24-.35-.07-.66-.18-.91-.33s-.45-.34-.58-.56c-.14-.22-.2-.46-.2-.73,0-.28.08-.54.25-.78.16-.23.39-.42.69-.55.3-.14.64-.2,1.03-.2.69,0,1.22.16,1.59.46.37.31.55.76.55,1.35l-1.21.08c0-.34-.08-.58-.25-.74-.17-.15-.4-.23-.69-.23-.24,0-.43.05-.56.16-.13.11-.2.26-.2.45,0,.14.03.26.09.34.06.09.17.17.31.23.15.07.37.13.65.19.42.09.79.2,1.1.33.31.13.56.32.76.56s.3.55.3.93-.09.7-.28.98c-.18.28-.44.5-.78.65s-.72.23-1.16.23c-.51,0-.94-.1-1.3-.29Z"/><path class="cls-1" d="m27.38,35.77c-.04-1.19-.07-2.38-.12-3.55v-.08c-.26-15.79.07-30.99-4.79-32.08-1.36-.3-3.27.46-6.11,4.03C12.7,8.72,7.49,18.06,0,35.93h27.3c.04,1.29.07,2.57.13,3.84v.08c.26,15.79-.07,31,4.79,32.09,1.36.3,3.28-.46,6.11-4.03,3.7-4.65,8.92-14.05,16.46-32.05,0-.03.03-.07.04-.09h-27.44Z"/></svg>